<?xml version="1.0" encoding="UTF-8"?>
<svg width="156px" height="156px" viewBox="0 0 156 156" version="1.1" xmlns="http://www.w3.org/2000/svg" xmlns:xlink="http://www.w3.org/1999/xlink">
    <!-- Generator: Sketch 54.1 (76490) - https://sketchapp.com -->
    <title>Group</title>
    <desc>Created with Sketch.</desc>
    <g id="Page-1" stroke="none" stroke-width="1" fill="none" fill-rule="evenodd">
        <g id="106719-OMT2LL-249" transform="translate(-322.000000, -588.000000)">
            <g id="Group" transform="translate(322.634000, 588.807000)">
                <polyline id="Fill-19" fill="#B489B2" points="34.804 -2.84217094e-14 0 34.804 0 119.928 34.804 154.732 119.928 154.732 154.732 119.928 154.732 34.804 119.928 -2.84217094e-14 34.804 -2.84217094e-14"></polyline>
                <polyline id="Fill-20" fill="#9A6FA2" points="77.366 -2.84217094e-14 34.804 -2.84217094e-14 0 34.804 0 119.928 34.804 154.732 77.366 154.732 77.366 -2.84217094e-14"></polyline>
                <polyline id="Fill-21" fill="#9A6FA2" points="48.577 33.252 34.804 -2.84217094e-14 119.928 -2.84217094e-14 106.154 33.252 48.577 33.252"></polyline>
                <polyline id="Fill-22" fill="#815C93" points="33.252 48.577 -2.84217094e-14 34.804 -2.84217094e-14 119.928 33.252 106.155 33.252 48.577"></polyline>
                <polyline id="Fill-23" fill="#9A6FA2" points="48.577 121.48 34.804 154.732 119.928 154.732 106.154 121.48 48.577 121.48"></polyline>
                <polyline id="Fill-24" fill="#9A6FA2" points="121.48 106.155 154.732 119.928 154.732 34.804 121.48 48.577 121.48 106.155"></polyline>
                <polyline id="Fill-25" fill="#CDADC7" points="48.577 121.48 33.252 106.155 33.252 48.577 48.577 33.252 106.154 33.252 121.48 48.577 121.48 106.155 106.154 121.48 48.577 121.48"></polyline>
                <polyline id="Fill-26" fill="#815C93" points="77.366 121.48 48.577 121.48 34.804 154.732 77.366 154.732 77.366 121.48"></polyline>
                <polyline id="Fill-27" fill="#815C93" points="77.366 -2.84217094e-14 34.804 -2.84217094e-14 48.577 33.252 77.366 33.252 77.366 -2.84217094e-14"></polyline>
                <polyline id="Fill-28" fill="#B489B2" points="77.366 33.252 48.577 33.252 33.252 48.577 33.252 106.155 48.577 121.48 77.366 121.48 77.366 33.252"></polyline>
            </g>
        </g>
    </g>
</svg>