<?xml version="1.0" encoding="UTF-8"?>
<svg width="120px" height="177px" viewBox="0 0 120 177" version="1.1" xmlns="http://www.w3.org/2000/svg" xmlns:xlink="http://www.w3.org/1999/xlink">
    <!-- Generator: Sketch 54.1 (76490) - https://sketchapp.com -->
    <title>Group 5</title>
    <desc>Created with Sketch.</desc>
    <g id="Page-1" stroke="none" stroke-width="1" fill="none" fill-rule="evenodd">
        <g id="106719-OMT2LL-249" transform="translate(-607.000000, -312.000000)">
            <g id="Group-5" transform="translate(607.789000, 312.690000)">
                <polyline id="Fill-46" fill="#F1AF79" points="85.125 8.52651283e-14 33.252 8.52651283e-14 -5.68434189e-14 33.252 -5.68434189e-14 142.318 33.252 175.57 85.125 175.57 118.377 142.318 118.377 33.252 85.125 8.52651283e-14"></polyline>
                <polyline id="Fill-47" fill="#EC9864" points="59.188 8.52651283e-14 33.252 8.52651283e-14 5.68434189e-14 33.252 5.68434189e-14 142.318 33.252 175.57 59.188 175.57 59.188 8.52651283e-14"></polyline>
                <polyline id="Fill-48" fill="#EC9864" points="47.026 33.252 33.252 2.84217094e-14 85.125 2.84217094e-14 71.351 33.252 59.188 44.114 47.026 33.252"></polyline>
                <path d="M33.252,47.026 L0,33.252 L0,142.318 L33.252,128.545 C33.252,128.545 46.774,77.81 45.888,76.48 C45.001,75.149 33.252,47.026 33.252,47.026" id="Fill-49" fill="#E58752"></path>
                <polyline id="Fill-50" fill="#EC9864" points="33.252 175.57 47.026 142.318 71.351 142.318 85.125 175.57 33.252 175.57"></polyline>
                <polyline id="Fill-51" fill="#EC9864" points="85.125 128.545 118.377 142.318 118.377 33.252 85.125 47.026 74.706 79.583 85.125 128.545"></polyline>
                <polyline id="Fill-52" fill="#E58752" points="59.188 142.318 47.026 142.318 33.252 175.57 59.188 175.57 59.188 142.318"></polyline>
                <polyline id="Fill-53" fill="#E58752" points="33.252 2.84217094e-14 47.026 33.252 59.188 44.114 59.188 2.84217094e-14 33.252 2.84217094e-14"></polyline>
                <polyline id="Fill-54" fill="#F8D1B1" points="47.026 142.318 33.252 128.545 33.252 47.026 47.026 33.252 71.351 33.252 85.125 47.026 85.125 128.545 71.351 142.318 47.026 142.318"></polyline>
                <polyline id="Fill-55" fill="#F1AF79" points="59.188 33.252 47.026 33.252 33.252 47.026 33.252 128.545 47.026 142.318 59.188 142.318 59.188 33.252"></polyline>
            </g>
        </g>
    </g>
</svg>