<?xml version="1.0" encoding="UTF-8"?>
<svg width="173px" height="140px" viewBox="0 0 173 140" version="1.1" xmlns="http://www.w3.org/2000/svg" xmlns:xlink="http://www.w3.org/1999/xlink">
    <!-- Generator: Sketch 54.1 (76490) - https://sketchapp.com -->
    <title>Group 2</title>
    <desc>Created with Sketch.</desc>
    <g id="Page-1" stroke="none" stroke-width="1" fill="none" fill-rule="evenodd">
        <g id="106719-OMT2LL-249" transform="translate(-47.000000, -64.000000)">
            <g id="Group-2" transform="translate(47.158000, 64.480000)">
                <polyline id="Fill-104" fill="#37B2A0" points="2.84217094e-14 37.866 86.175 138.771 172.351 37.866 91.238 18.933 2.84217094e-14 37.866"></polyline>
                <polyline id="Fill-105" fill="#319384" points="0 37.866 86.175 138.771 86.175 19.983 0 37.866"></polyline>
                <polygon id="Fill-106" fill="#74C5C3" points="28.725 37.866 143.626 37.866 143.626 0 28.725 0"></polygon>
                <polygon id="Fill-107" fill="#54BAB0" points="28.725 37.865 86.175 37.865 86.175 0 28.725 0"></polygon>
                <polyline id="Fill-108" fill="#74C5C3" points="57.45 37.866 86.175 138.771 114.9 37.866 86.175 27.931 57.45 37.866"></polyline>
                <polyline id="Fill-109" fill="#37B2A0" points="1.42108547e-14 37.866 28.725 0 57.45 37.866 1.42108547e-14 37.866"></polyline>
                <polyline id="Fill-110" fill="#54BAB0" points="114.9 37.866 143.626 0 172.351 37.866 114.9 37.866"></polyline>
                <polyline id="Fill-111" fill="#54BAB0" points="57.45 37.866 86.175 138.771 86.175 27.931 57.45 37.866"></polyline>
                <polyline id="Fill-112" fill="#98D2D1" points="57.45 37.866 86.175 0 114.9 37.866 57.45 37.866"></polyline>
                <polyline id="Fill-113" fill="#74C5C3" points="86.175 0 57.45 37.865 86.175 37.865 86.175 0"></polyline>
            </g>
        </g>
    </g>
</svg>