<?xml version="1.0" encoding="UTF-8"?>
<svg width="154px" height="154px" viewBox="0 0 154 154" version="1.1" xmlns="http://www.w3.org/2000/svg" xmlns:xlink="http://www.w3.org/1999/xlink">
    <!-- Generator: Sketch 54.1 (76490) - https://sketchapp.com -->
    <title>Group 6</title>
    <desc>Created with Sketch.</desc>
    <g id="Page-1" stroke="none" stroke-width="1" fill="none" fill-rule="evenodd">
        <g id="106719-OMT2LL-249" transform="translate(-590.000000, -57.000000)">
            <g id="Group-6" transform="translate(590.260000, 57.459000)">
                <path d="M152.813,76.406 C152.813,118.605 118.605,152.813 76.407,152.813 C34.208,152.813 5.68434189e-14,118.605 5.68434189e-14,76.406 C5.68434189e-14,34.208 34.208,0 76.407,0 C118.605,0 152.813,34.208 152.813,76.406" id="Fill-72" fill="#4D9C59"></path>
                <path d="M5.68434189e-14,76.406 C5.68434189e-14,118.605 34.208,152.813 76.407,152.813 L76.407,0 C34.208,0 5.68434189e-14,34.208 5.68434189e-14,76.406" id="Fill-73" fill="#3D8846"></path>
                <polyline id="Fill-74" fill="#A7D3A6" points="54.028 22.379 22.379 51.446 22.379 98.199 54.028 130.434 98.786 130.434 130.434 98.785 130.434 54.027 98.786 22.379 54.028 22.379"></polyline>
                <polyline id="Fill-75" fill="#81C287" points="76.407 22.379 54.028 22.379 22.379 51.446 22.379 98.199 54.028 130.434 76.407 130.434 76.407 22.379"></polyline>
                <polyline id="Fill-76" fill="#81C287" points="76.407 0 54.028 22.379 98.786 22.379 76.407 0"></polyline>
                <polyline id="Fill-77" fill="#4D9C59" points="22.379 22.379 22.379 54.027 54.028 22.379 22.379 22.379"></polyline>
                <polyline id="Fill-78" fill="#5FB671" points="-5.68434189e-14 76.406 22.379 98.785 22.379 54.027 -5.68434189e-14 76.406"></polyline>
                <polyline id="Fill-79" fill="#4D9C59" points="22.379 130.434 54.028 130.434 22.379 98.785 22.379 130.434"></polyline>
                <polyline id="Fill-80" fill="#5FB671" points="130.434 22.379 130.434 54.027 98.786 22.379 130.434 22.379"></polyline>
                <polyline id="Fill-81" fill="#81C287" points="152.813 76.406 130.434 98.785 130.434 54.027 152.813 76.406"></polyline>
                <polyline id="Fill-82" fill="#5FB671" points="130.434 130.434 98.786 130.434 130.434 98.785 130.434 130.434"></polyline>
                <polyline id="Fill-83" fill="#81C287" points="76.407 152.813 98.786 130.434 54.028 130.434 76.407 152.813"></polyline>
                <polyline id="Fill-84" fill="#5FB671" points="76.407 0 54.028 22.379 76.407 22.379 76.407 0"></polyline>
                <polyline id="Fill-85" fill="#5FB671" points="76.407 152.813 54.028 130.434 76.407 130.434 76.407 152.813"></polyline>
            </g>
        </g>
    </g>
</svg>