<?xml version="1.0" encoding="UTF-8"?>
<svg width="108px" height="176px" viewBox="0 0 108 176" version="1.1" xmlns="http://www.w3.org/2000/svg" xmlns:xlink="http://www.w3.org/1999/xlink">
    <!-- Generator: Sketch 54.1 (76490) - https://sketchapp.com -->
    <title>Group 3</title>
    <desc>Created with Sketch.</desc>
    <g id="Page-1" stroke="none" stroke-width="1" fill="none" fill-rule="evenodd">
        <g id="106719-OMT2LL-249" transform="translate(-79.000000, -579.000000)">
            <g id="Group-3" transform="translate(79.935000, 579.414000)">
                <polyline id="Fill-35" fill="#95D4EA" points="53.398 -2.84217094e-14 1.42108547e-14 40.104 1.42108547e-14 135.489 53.367 175.569 106.797 135.489 106.797 40.104 53.398 -2.84217094e-14"></polyline>
                <polyline id="Fill-36" fill="#75C9E5" points="0 135.489 53.367 175.569 53.398 175.546 53.398 -2.84217094e-14 0 40.104 0 135.489"></polyline>
                <polyline id="Fill-37" fill="#C2E5EE" points="33.252 118.876 33.252 56.716 53.398 41.585 73.545 56.716 73.545 118.865 53.379 133.993 33.252 118.876"></polyline>
                <polyline id="Fill-38" fill="#5EB8CA" points="53.398 41.585 53.398 -5.68434189e-14 0 40.104 33.252 56.716 53.398 41.585"></polyline>
                <polyline id="Fill-39" fill="#5EB8CA" points="33.252 118.876 0 135.489 53.367 175.569 53.379 133.993 33.252 118.876"></polyline>
                <polyline id="Fill-40" fill="#75C9E5" points="73.545 56.716 106.797 40.104 106.797 135.489 73.545 118.865 73.545 56.716"></polyline>
                <polyline id="Fill-41" fill="#95D4EA" points="53.398 41.586 53.398 41.585 33.252 56.716 33.252 118.876 53.379 133.993 53.398 133.978 53.398 41.586"></polyline>
            </g>
        </g>
    </g>
</svg>